<svg width="29" height="28" viewBox="0 0 29 28" fill="none" xmlns="http://www.w3.org/2000/svg">
<g clip-path="url(#clip0_34138_180318)">
<path d="M14.5 3.8147e-06C6.49186 3.8147e-06 0 6.26801 0 14C0 21.732 6.49186 28 14.5 28C22.5081 28 29 21.732 29 14C29 6.26801 22.5081 3.8147e-06 14.5 3.8147e-06Z" fill="url(#paint0_linear_34138_180318)"/>
<mask id="mask0_34138_180318" style="mask-type:alpha" maskUnits="userSpaceOnUse" x="-1856" y="-1764" width="3712" height="3584">
<path d="M-1856 -1763.95H1855.94V1820H-1856V-1763.95Z" fill="url(#paint1_radial_34138_180318)"/>
</mask>
<g mask="url(#mask0_34138_180318)">
<path d="M14.5 3.8147e-06C6.49186 3.8147e-06 0 6.26801 0 14C0 21.732 6.49186 28 14.5 28C22.5081 28 29 21.732 29 14C29 6.26801 22.5081 3.8147e-06 14.5 3.8147e-06Z" fill="url(#paint2_radial_34138_180318)"/>
</g>
<mask id="mask1_34138_180318" style="mask-type:alpha" maskUnits="userSpaceOnUse" x="-1856" y="-1764" width="3712" height="3584">
<path d="M-1856 -1763.95H1855.94V1820H-1856V-1763.95Z" fill="url(#paint3_linear_34138_180318)"/>
</mask>
<g mask="url(#mask1_34138_180318)">
<path d="M12.1055 8.60645C14.9905 9.03848 17.8846 9.50529 20.7844 9.98047C20.7766 9.42233 20.7671 8.86424 20.7557 8.3061C17.8638 7.81041 14.9805 7.33441 12.1095 6.90473C12.108 7.47201 12.1067 8.03917 12.1055 8.60645Z" fill="url(#paint4_linear_34138_180318)"/>
</g>
<path d="M13.9609 21.4772C14.3252 22.6579 15.41 23.5309 16.7027 23.5579C17.1593 23.5677 17.5965 23.4756 17.9944 23.3044C18.647 23.0233 19.3018 22.7402 19.9586 22.456C21.431 21.8148 22.442 20.408 22.4822 18.8966C22.4964 18.3497 22.5083 17.8028 22.5183 17.256C19.6454 18.6548 16.7813 20.0887 13.9609 21.4772Z" fill="url(#paint5_linear_34138_180318)"/>
<path d="M3.59766 19.0732C3.99946 20.2363 5.13296 21.1424 6.4413 21.2345C6.9032 21.2666 7.34109 21.197 7.73571 21.0453C8.38305 20.7963 9.03249 20.5432 9.68386 20.2868C11.1445 19.7109 12.1034 18.3101 12.1024 16.7586C12.1015 16.1983 12.1009 15.6378 12.1006 15.0773C9.24456 16.4517 6.39854 17.8107 3.59766 19.0732Z" fill="url(#paint6_linear_34138_180318)"/>
<path d="M10.413 4.31391C10.3815 7.02269 10.3639 9.73147 10.3602 12.4403C10.3593 13.1193 9.93506 13.7316 9.28448 13.9902C7.9566 14.5184 6.62997 15.0417 5.3069 15.5536C4.15579 16.0011 3.36837 17.0799 3.45129 18.3418C3.46749 18.5922 3.5187 18.8358 3.59873 19.0687C4.12634 19.5334 4.80908 19.8412 5.54994 19.8912C6.01394 19.9223 6.45404 19.8525 6.85064 19.7008C7.78645 19.343 8.72618 18.9772 9.66891 18.6056C11.1388 18.0255 12.1021 16.6246 12.1017 15.0729C12.1006 13.4835 12.1012 11.8943 12.1033 10.3049C12.6824 10.3918 13.2616 10.4795 13.8411 10.5681C14.1304 10.3068 14.4193 10.0457 14.7078 9.78506C14.4176 9.47876 14.1277 9.1724 13.8383 8.86631C13.2606 8.77734 12.6832 8.68951 12.1063 8.6031C12.1075 8.03583 12.1088 7.46867 12.1103 6.90139C12.6845 6.98742 13.2592 7.07514 13.8344 7.1646C14.1635 6.10892 14.4886 5.05443 14.8073 4.00181C13.6701 3.81543 12.5356 3.63874 11.4041 3.47336C11.3622 3.46724 11.3205 3.46428 11.2794 3.46428C10.8162 3.46423 10.4189 3.84081 10.413 4.31391Z" fill="url(#paint7_linear_34138_180318)"/>
<path d="M13.8281 4.82833C13.8311 5.60812 13.8335 6.38786 13.8356 7.16765C16.1362 7.52536 18.4442 7.90926 20.7577 8.3058C20.769 8.86394 20.7786 9.42203 20.7864 9.98017C18.4665 9.60004 16.1503 9.22527 13.8395 8.86936C13.8406 9.43663 13.8415 10.0038 13.8422 10.5711C16.16 10.9252 18.4812 11.2908 20.804 11.6545C20.8114 12.6672 20.8128 13.6798 20.8082 14.6925C20.8052 15.3611 20.3754 15.9681 19.7235 16.2322C18.3928 16.7701 17.0634 17.3118 15.7378 17.8505C14.5846 18.3192 13.7866 19.4402 13.8356 20.7337C13.8451 20.9903 13.8891 21.2386 13.9616 21.4748C14.4717 21.9333 15.1382 22.2206 15.8718 22.2409C16.3312 22.2539 16.7706 22.1651 17.1698 21.9965C18.1116 21.5987 19.0575 21.1973 20.0065 20.7947C21.4859 20.1632 22.4912 18.7649 22.519 17.2536C22.5862 13.5244 22.5525 9.79522 22.4177 6.06602C22.403 5.66232 22.082 5.30488 21.6634 5.22504C19.3686 4.7888 17.083 4.37754 14.8085 4.00485C14.7609 3.99703 14.7137 3.99326 14.6673 3.9932C14.2099 3.9932 13.8269 4.35988 13.8281 4.82833Z" fill="url(#paint8_linear_34138_180318)"/>
</g>
<defs>
<linearGradient id="paint0_linear_34138_180318" x1="4.24695" y1="23.8995" x2="24.0338" y2="3.40602" gradientUnits="userSpaceOnUse">
<stop stop-color="#0056E0"/>
<stop offset="1" stop-color="#FC54FF"/>
</linearGradient>
<radialGradient id="paint1_radial_34138_180318" cx="0" cy="0" r="1" gradientUnits="userSpaceOnUse" gradientTransform="translate(16.2807 8.39872) scale(20.6365 19.9249)">
<stop stop-color="white" stop-opacity="0.4"/>
<stop offset="0.00534759" stop-color="white" stop-opacity="0.4"/>
<stop offset="0.98532" stop-color="white" stop-opacity="0"/>
<stop offset="1" stop-color="white" stop-opacity="0"/>
</radialGradient>
<radialGradient id="paint2_radial_34138_180318" cx="0" cy="0" r="1" gradientUnits="userSpaceOnUse" gradientTransform="translate(16.2806 8.39877) scale(20.6365 19.9249)">
<stop stop-color="#8D00DB"/>
<stop offset="0.00534759" stop-color="#8D00DB"/>
<stop offset="0.98532" stop-color="#FC54FF"/>
<stop offset="1" stop-color="#FC54FF"/>
</radialGradient>
<linearGradient id="paint3_linear_34138_180318" x1="16.684" y1="6.87637" x2="15.4642" y2="15.4983" gradientUnits="userSpaceOnUse">
<stop stop-color="white" stop-opacity="0.700008"/>
<stop offset="0.00534759" stop-color="white" stop-opacity="0.700008"/>
<stop offset="0.368124" stop-color="white" stop-opacity="0"/>
<stop offset="1" stop-color="white" stop-opacity="0"/>
</linearGradient>
<linearGradient id="paint4_linear_34138_180318" x1="16.6846" y1="6.8769" x2="15.4648" y2="15.4988" gradientUnits="userSpaceOnUse">
<stop stop-color="#8D00DB"/>
<stop offset="0.00534759" stop-color="#8D00DB"/>
<stop offset="0.368124" stop-color="#FC54FF"/>
<stop offset="1" stop-color="#FC54FF"/>
</linearGradient>
<linearGradient id="paint5_linear_34138_180318" x1="2.12537" y1="36.481" x2="34.9671" y2="2.46636" gradientUnits="userSpaceOnUse">
<stop stop-color="#FC54FF"/>
<stop offset="0.0794609" stop-color="#FC54FF"/>
<stop offset="1" stop-color="white"/>
</linearGradient>
<linearGradient id="paint6_linear_34138_180318" x1="-3.39352" y1="29.5716" x2="38.8343" y2="-14.1644" gradientUnits="userSpaceOnUse">
<stop stop-color="#FC54FF"/>
<stop offset="0.0794609" stop-color="#FC54FF"/>
<stop offset="1" stop-color="white"/>
</linearGradient>
<linearGradient id="paint7_linear_34138_180318" x1="-9.51715" y1="30.3742" x2="30.4985" y2="-11.0706" gradientUnits="userSpaceOnUse">
<stop stop-color="#FC54FF"/>
<stop offset="0.0794609" stop-color="#FC54FF"/>
<stop offset="1" stop-color="white"/>
</linearGradient>
<linearGradient id="paint8_linear_34138_180318" x1="-14.8425" y1="43.4965" x2="31.6253" y2="-4.63088" gradientUnits="userSpaceOnUse">
<stop stop-color="#FC54FF"/>
<stop offset="0.0794609" stop-color="#FC54FF"/>
<stop offset="1" stop-color="white"/>
</linearGradient>
<clipPath id="clip0_34138_180318">
<rect width="29" height="28" fill="white"/>
</clipPath>
</defs>
</svg>
