<svg width="29" height="28" viewBox="0 0 29 28" fill="none" xmlns="http://www.w3.org/2000/svg">
<g clip-path="url(#clip0_34138_180308)">
<path d="M14.5 28C22.5081 28 29 21.732 29 14C29 6.26801 22.5081 0 14.5 0C6.49187 0 0 6.26801 0 14C0 21.732 6.49187 28 14.5 28Z" fill="url(#paint0_linear_34138_180308)"/>
<path d="M17.4305 7H11.5695C10.4243 7.00146 9.32655 7.44133 8.51682 8.22313C7.70709 9.00494 7.25151 10.0649 7.25 11.1705V16.8295C7.25151 17.9351 7.70709 18.9951 8.51682 19.7769C9.32655 20.5587 10.4243 20.9985 11.5695 21H17.4305C18.5758 20.999 19.6739 20.5593 20.4837 19.7774C21.2936 18.9955 21.749 17.9353 21.75 16.8295V11.1705C21.7485 10.0649 21.2929 9.00494 20.4832 8.22313C19.6735 7.44133 18.5757 7.00146 17.4305 7ZM20.2924 16.8295C20.2924 17.5623 19.9909 18.2651 19.4542 18.7833C18.9175 19.3015 18.1895 19.5926 17.4305 19.5926H11.5695C10.8105 19.5926 10.0825 19.3015 9.54585 18.7833C9.00915 18.2651 8.70763 17.5623 8.70763 16.8295V11.1705C8.70763 10.4377 9.00915 9.73487 9.54585 9.21668C10.0825 8.69849 10.8105 8.40737 11.5695 8.40737H17.4305C18.1895 8.40737 18.9175 8.69849 19.4542 9.21668C19.9909 9.73487 20.2924 10.4377 20.2924 11.1705V16.8295Z" fill="white"/>
<path d="M14.4989 10.3828C13.7569 10.3824 13.0314 10.5946 12.4143 10.9924C11.7972 11.3902 11.3161 11.9558 11.032 12.6176C10.7478 13.2795 10.6734 14.0078 10.8181 14.7105C10.9627 15.4132 11.32 16.0586 11.8447 16.5652C12.3694 17.0718 13.0379 17.4168 13.7657 17.5565C14.4935 17.6962 15.2478 17.6243 15.9333 17.3499C16.6188 17.0756 17.2046 16.6111 17.6166 16.0153C18.0286 15.4194 18.2483 14.719 18.2479 14.0025C18.2469 13.0428 17.8516 12.1227 17.1488 11.4441C16.4459 10.7655 15.4929 10.3838 14.4989 10.3828ZM14.4989 16.2131C14.0461 16.2131 13.6035 16.0834 13.227 15.8405C12.8505 15.5976 12.557 15.2524 12.3837 14.8485C12.2104 14.4446 12.1651 14.0001 12.2534 13.5713C12.3418 13.1425 12.5598 12.7486 12.88 12.4395C13.2002 12.1303 13.6082 11.9198 14.0523 11.8345C14.4964 11.7492 14.9567 11.793 15.3751 11.9603C15.7934 12.1276 16.151 12.4109 16.4026 12.7744C16.6541 13.138 16.7884 13.5653 16.7884 14.0025C16.7884 14.5888 16.5472 15.1511 16.1178 15.5656C15.6885 15.9802 15.1061 16.2131 14.4989 16.2131Z" fill="white"/>
<path d="M18.271 11.2749C18.7831 11.2749 19.1982 10.8741 19.1982 10.3796C19.1982 9.8852 18.7831 9.48438 18.271 9.48438C17.7589 9.48438 17.3438 9.8852 17.3438 10.3796C17.3438 10.8741 17.7589 11.2749 18.271 11.2749Z" fill="white"/>
</g>
<defs>
<linearGradient id="paint0_linear_34138_180308" x1="14.5" y1="27.8711" x2="14.5" y2="1.89737" gradientUnits="userSpaceOnUse">
<stop stop-color="#E09B3D"/>
<stop offset="0.24" stop-color="#C74C4D"/>
<stop offset="0.65" stop-color="#C21975"/>
<stop offset="1" stop-color="#7024C4"/>
</linearGradient>
<clipPath id="clip0_34138_180308">
<rect width="29" height="28" fill="white"/>
</clipPath>
</defs>
</svg>
