<svg width="29" height="28" viewBox="0 0 29 28" fill="none" xmlns="http://www.w3.org/2000/svg">
<g clip-path="url(#clip0_34138_180298)">
<path d="M14.5 28C22.5081 28 29 21.732 29 14C29 6.26801 22.5081 0 14.5 0C6.49187 0 0 6.26801 0 14C0 21.732 6.49187 28 14.5 28Z" fill="#12C64B"/>
<path d="M19.7372 19.171C19.6224 19.3606 19.4343 19.4983 19.2144 19.5541C18.9944 19.6099 18.7605 19.5791 18.564 19.4685C16.3083 18.1958 13.7032 17.9922 11.9138 18.0367C10.7514 18.0655 9.59547 18.2126 8.46512 18.4758C8.25468 18.5118 8.03791 18.4707 7.8572 18.3605C7.67649 18.2503 7.54483 18.0791 7.48797 17.8802C7.43111 17.6813 7.45314 17.469 7.54975 17.285C7.64635 17.1009 7.81059 16.9583 8.01035 16.8849C9.25564 16.586 10.5306 16.4175 11.8133 16.3822C13.0408 16.3384 14.2696 16.4243 15.4778 16.6383C16.8688 16.8814 18.2063 17.3528 19.4324 18.032C19.5304 18.087 19.616 18.1602 19.6845 18.2474C19.7529 18.3347 19.8027 18.4341 19.8311 18.5401C19.8594 18.646 19.8657 18.7563 19.8496 18.8646C19.8335 18.9729 19.7953 19.0771 19.7372 19.171Z" fill="white"/>
<path d="M21.3316 15.9768C21.2422 16.1251 21.114 16.2481 20.9599 16.3335C20.8057 16.4189 20.6311 16.4638 20.4534 16.4636C20.2731 16.4639 20.096 16.4172 19.9409 16.3284C17.27 14.8218 14.1854 14.5784 12.0648 14.642C10.688 14.6756 9.31878 14.85 7.98007 15.1623C7.72398 15.2205 7.4545 15.1805 7.22826 15.0509C7.00201 14.9213 6.83663 14.712 6.76687 14.4671C6.6971 14.2222 6.72839 13.9607 6.85415 13.7375C6.97992 13.5144 7.19036 13.3471 7.44126 13.2707C8.91651 12.9182 10.4269 12.7208 11.9461 12.682C13.4006 12.628 14.8567 12.7299 16.2879 12.9859C17.9341 13.274 19.5168 13.8326 20.9675 14.6373C21.1992 14.7687 21.3677 14.9834 21.4359 15.2345C21.5042 15.4855 21.4667 15.7524 21.3316 15.9768Z" fill="white"/>
<path d="M23.3965 12.4697C23.3141 12.6064 23.2045 12.726 23.0741 12.8217C22.9437 12.9174 22.795 12.9872 22.6365 13.0273C22.4781 13.0674 22.313 13.0768 22.1508 13.0551C21.9885 13.0334 21.8323 12.981 21.6911 12.9009C15.3408 9.31814 7.10377 11.4484 7.02633 11.4691C6.86625 11.518 6.69759 11.5353 6.53044 11.5198C6.3633 11.5043 6.20111 11.4563 6.05361 11.3789C5.90611 11.3014 5.77633 11.196 5.67205 11.0689C5.56777 10.9418 5.49113 10.7957 5.44673 10.6394C5.40234 10.483 5.39109 10.3196 5.41368 10.159C5.43626 9.99832 5.49221 9.84373 5.57816 9.70446C5.66412 9.56519 5.77831 9.44411 5.9139 9.34847C6.04949 9.25284 6.20368 9.18462 6.36723 9.14791C8.17243 8.71833 10.0203 8.47778 11.8789 8.43041C13.6622 8.36624 15.4475 8.49108 17.2027 8.80269C19.2212 9.15311 21.1627 9.8343 22.9434 10.8168C23.086 10.8961 23.211 11.002 23.3111 11.1282C23.4111 11.2544 23.4844 11.3985 23.5265 11.5521C23.5686 11.7058 23.5788 11.866 23.5565 12.0235C23.5342 12.181 23.4798 12.3326 23.3965 12.4697Z" fill="white"/>
</g>
<defs>
<clipPath id="clip0_34138_180298">
<rect width="29" height="28" fill="white"/>
</clipPath>
</defs>
</svg>
