<svg width="29" height="28" viewBox="0 0 29 28" fill="none" xmlns="http://www.w3.org/2000/svg">
<path d="M29 14C29 21.7317 22.508 28 14.4996 28H14.4725C6.477 27.9855 0 21.7214 0 14C0 6.27865 6.477 0.0137992 14.4725 0H14.4996C22.508 0 29 6.26623 29 14Z" fill="white" fill-opacity="0.9"/>
<path d="M17.4874 12.1455L14.289 15.2344L11.0898 12.1455L14.289 9.05792L17.4874 12.1455Z" fill="#171B1E"/>
<path d="M17.4874 18.3252L14.289 21.4141L11.0898 18.3252L14.289 15.2363L17.4874 18.3252Z" fill="#171B1E"/>
<path d="M11.089 12.1455L7.88985 15.2344L4.69141 12.1455L7.88985 9.05727L11.089 12.1455Z" fill="#171B1E"/>
<path d="M23.8819 12.1455L20.6835 15.2344L17.4844 12.1455L20.6835 9.05727L23.8819 12.1455Z" fill="#171B1E"/>
</svg>
