<svg width="29" height="28" viewBox="0 0 29 28" fill="none" xmlns="http://www.w3.org/2000/svg">
<g clip-path="url(#clip0_34138_180380)">
<path d="M29.0007 14C29.0007 21.7317 22.5086 28 14.5 28H14.4728C6.47716 27.9855 0 21.7214 0 14C0 6.27865 6.47716 0.0137992 14.4728 0H14.5C22.5086 0 29.0007 6.26623 29.0007 14Z" fill="white" fill-opacity="0.9"/>
<g clip-path="url(#clip1_34138_180380)">
<path d="M12.2848 14.2699C11.0674 14.2699 10.0838 15.2195 10.1018 16.3834C10.1138 17.1304 10.5396 17.7789 11.1663 18.1408C10.9534 17.8252 10.8275 17.4517 10.8215 17.0493C10.8035 15.8854 11.787 14.9358 13.0045 14.9358C13.2444 14.9358 13.4753 14.9734 13.6912 15.04V12.7094C13.4663 12.6775 13.2354 12.6602 13.0045 12.6602C12.9925 12.6602 12.9835 12.6602 12.9715 12.6602V14.3741C12.7556 14.3075 12.5247 14.2699 12.2848 14.2699V14.2699Z" fill="#F00044"/>
<path d="M17.548 7.28125H17.53H16.9062C17.0862 8.15271 17.5929 8.91126 18.3006 9.42661C17.8358 8.83309 17.554 8.09191 17.548 7.28125V7.28125Z" fill="#F00044"/>
<path d="M21.2189 10.8293C20.982 10.8293 20.7541 10.8062 20.5292 10.7656V12.4362C19.7136 12.4362 18.9219 12.2827 18.1783 11.9758C17.6985 11.779 17.2517 11.5271 16.8409 11.2231L16.8529 16.3737C16.8469 17.5318 16.3731 18.6175 15.5155 19.4368C14.8168 20.1027 13.9322 20.5283 12.9727 20.6644C12.7478 20.6962 12.5169 20.7136 12.286 20.7136C11.2605 20.7136 10.2829 20.3922 9.48828 19.7987C9.57824 19.9029 9.6742 20.0043 9.77915 20.1027C10.6428 20.925 11.7882 21.3795 13.0087 21.3795C13.2396 21.3795 13.4705 21.3621 13.6953 21.3303C14.6549 21.1942 15.5395 20.7686 16.2382 20.1027C17.0958 19.2834 17.5696 18.1977 17.5756 17.0396L17.5306 11.889C17.9384 12.193 18.3852 12.4477 18.868 12.6417C19.6146 12.9457 20.4063 13.1021 21.2189 13.1021" fill="#F00044"/>
<path d="M9.76982 13.9446C10.6244 13.1252 11.7609 12.6707 12.9723 12.662V12.0453C12.7475 12.0135 12.5166 11.9961 12.2857 11.9961C11.0622 11.9961 9.91375 12.4506 9.05015 13.2787C8.20154 14.0922 7.71577 15.204 7.71876 16.3592C7.71876 17.5231 8.19554 18.6146 9.05615 19.4397C9.19409 19.57 9.33502 19.6916 9.48495 19.8016C8.80726 19.0228 8.43843 18.05 8.43543 17.0251C8.43843 15.8699 8.92121 14.7581 9.76982 13.9446V13.9446Z" fill="#08FFF9"/>
<path d="M20.5297 10.7673V10.1477H20.5237C19.6901 10.1477 18.9224 9.88134 18.3047 9.42969C18.8414 10.113 19.6271 10.5994 20.5297 10.7673Z" fill="#08FFF9"/>
<path d="M12.8832 19.1014C13.168 19.1159 13.4409 19.0782 13.6928 19C14.5624 18.725 15.1891 17.9433 15.1891 17.0226L15.1921 13.5773V7.28309H16.9073C16.8624 7.06595 16.8384 6.84591 16.8354 6.61719H14.4724V12.9085L14.4695 16.3538C14.4695 17.2745 13.8427 18.0562 12.9731 18.3313C12.7213 18.4123 12.4484 18.45 12.1635 18.4326C11.8007 18.4123 11.4618 18.3081 11.168 18.1402C11.5368 18.6903 12.1665 19.0637 12.8832 19.1014V19.1014Z" fill="#08FFF9"/>
<path d="M12.9714 20.663C13.931 20.5269 14.8156 20.1013 15.5143 19.4354C16.3719 18.616 16.8456 17.5303 16.8516 16.3722L16.8397 11.2216C17.2475 11.5256 17.6943 11.7804 18.177 11.9744C18.9237 12.2784 19.7153 12.4347 20.528 12.4347V10.7642C19.6254 10.5963 18.8397 10.1099 18.303 9.42661C17.5953 8.91126 17.0855 8.15271 16.9086 7.28125H15.1904V13.5726L15.1874 17.0179C15.1874 17.9386 14.5607 18.7203 13.6911 18.9953C13.4392 19.0764 13.1663 19.114 12.8815 19.0966C12.1618 19.059 11.5351 18.6855 11.1663 18.1383C10.5395 17.7793 10.1137 17.1279 10.1017 16.3809C10.0838 15.217 11.0673 14.2674 12.2847 14.2674C12.5246 14.2674 12.7555 14.3051 12.9714 14.3716V12.6577C11.76 12.6664 10.6235 13.1209 9.7689 13.9403C8.92029 14.7538 8.43452 15.8656 8.43751 17.0179C8.43751 18.0428 8.80634 19.0156 9.48703 19.7944C10.2847 20.3879 11.2592 20.7093 12.2847 20.7093C12.5156 20.7122 12.7465 20.6948 12.9714 20.663V20.663Z" fill="black"/>
</g>
</g>
<defs>
<clipPath id="clip0_34138_180380">
<rect width="29" height="28" fill="white"/>
</clipPath>
<clipPath id="clip1_34138_180380">
<rect width="15.3529" height="14.8235" fill="white" transform="translate(6.82422 6.58984)"/>
</clipPath>
</defs>
</svg>
