<svg width="29" height="28" viewBox="0 0 29 28" fill="none" xmlns="http://www.w3.org/2000/svg">
<g clip-path="url(#clip0_34138_180373)">
<path d="M14.5 28C22.5081 28 29 21.732 29 14C29 6.26801 22.5081 0 14.5 0C6.49187 0 0 6.26801 0 14C0 21.732 6.49187 28 14.5 28Z" fill="#00A6DE"/>
<path d="M21.7209 9.76206C21.3782 10.2591 20.9594 10.7032 20.4789 11.0792C20.4183 11.1279 20.3697 11.1891 20.3367 11.2582C20.3037 11.3274 20.2871 11.4028 20.2881 11.4789V11.525C20.2825 12.5233 20.0925 13.5126 19.7271 14.4465C19.3507 15.4267 18.7913 16.3321 18.0768 17.1176C17.1167 18.1729 15.8815 18.961 14.4995 19.4C13.5914 19.6845 12.642 19.8269 11.6873 19.8218C10.1727 19.8216 8.68507 19.4346 7.37544 18.7C7.32851 18.6742 7.29157 18.6343 7.27022 18.5865C7.24887 18.5386 7.24428 18.4853 7.25715 18.4347C7.27036 18.3849 7.30045 18.3408 7.34263 18.3094C7.38481 18.278 7.43666 18.2612 7.48991 18.2615H7.85241C9.00344 18.2643 10.129 17.9345 11.0844 17.3147C10.515 17.2257 9.98217 16.9866 9.54453 16.6239C9.1069 16.2612 8.78147 15.7888 8.60412 15.2589C8.59504 15.2324 8.59339 15.204 8.59935 15.1766C8.6053 15.1493 8.61864 15.1239 8.63802 15.1032C8.65739 15.0824 8.68211 15.067 8.70967 15.0584C8.73722 15.0498 8.76663 15.0485 8.79491 15.0544C8.96854 15.086 9.14481 15.102 9.32149 15.1023H9.38827C8.83799 14.8582 8.37271 14.4655 8.04869 13.9715C7.72467 13.4776 7.55577 12.9036 7.56241 12.3189C7.56261 12.2915 7.57014 12.2647 7.58427 12.241C7.5984 12.2173 7.61866 12.1975 7.64305 12.1836C7.66745 12.1697 7.69517 12.1621 7.7235 12.1616C7.75183 12.1611 7.77981 12.1677 7.80472 12.1807C8.02854 12.3014 8.26871 12.3913 8.51827 12.4478C8.02499 11.9766 7.7077 11.3606 7.61619 10.6965C7.52468 10.0324 7.66414 9.35771 8.01268 8.77837C8.02586 8.75612 8.04444 8.73729 8.06683 8.7235C8.08921 8.70971 8.11472 8.70137 8.14118 8.6992C8.16763 8.69702 8.19424 8.70108 8.21871 8.71102C8.24319 8.72096 8.2648 8.73649 8.28169 8.75627C8.97078 9.58006 9.82422 10.2618 10.7914 10.7612C11.7585 11.2605 12.8197 11.5672 13.9119 11.6631H13.9271C13.9432 11.6627 13.959 11.6591 13.9735 11.6525C13.9881 11.646 14.0011 11.6367 14.0118 11.6251C14.0226 11.6136 14.0307 11.6001 14.0358 11.5854C14.041 11.5707 14.0429 11.5551 14.0416 11.5397C13.999 11.17 14.0236 10.796 14.1141 10.4344C14.2372 9.94298 14.4899 9.49064 14.8476 9.12137C15.2053 8.7521 15.6559 8.47846 16.1556 8.32706C16.4761 8.23037 16.8099 8.1807 17.1458 8.17969C17.9073 8.17884 18.6428 8.4468 19.2139 8.93311C19.2879 8.99702 19.3837 9.03243 19.4829 9.03258C19.5152 9.03192 19.5472 9.02759 19.5783 9.01969C20.115 8.88877 20.6291 8.68338 21.1047 8.40995C21.1331 8.393 21.1663 8.38496 21.1997 8.38693C21.2331 8.3889 21.265 8.40078 21.2911 8.42095C21.3172 8.44112 21.3362 8.46859 21.3455 8.4996C21.3549 8.5306 21.354 8.56363 21.3431 8.59416C21.1844 9.0764 20.9014 9.51183 20.5208 9.85969C20.8637 9.78076 21.1984 9.67162 21.5206 9.53364C21.5524 9.52178 21.5872 9.51979 21.6202 9.52793C21.6533 9.53607 21.6829 9.55394 21.7049 9.57905C21.7269 9.60417 21.7403 9.63529 21.7432 9.66809C21.746 9.70088 21.7382 9.73373 21.7209 9.76206Z" fill="white"/>
</g>
<defs>
<clipPath id="clip0_34138_180373">
<rect width="29" height="28" fill="white"/>
</clipPath>
</defs>
</svg>
