<svg width="30" height="30" viewBox="0 0 30 30" fill="none" xmlns="http://www.w3.org/2000/svg">
<path d="M15 23.123C19.4873 23.123 23.125 19.4854 23.125 14.998C23.125 10.5107 19.4873 6.87305 15 6.87305C10.5127 6.87305 6.875 10.5107 6.875 14.998C6.875 19.4854 10.5127 23.123 15 23.123Z" stroke="white" stroke-width="1.5" stroke-linecap="round" stroke-linejoin="round"/>
<path d="M23.925 23.927L23.7625 23.7645M23.7625 6.23945L23.925 6.07695L23.7625 6.23945ZM6.075 23.927L6.2375 23.7645L6.075 23.927ZM15 2.60195V2.50195V2.60195ZM15 27.502V27.402V27.502ZM2.6 15.002H2.5H2.6ZM27.5 15.002H27.4H27.5ZM6.2375 6.23945L6.075 6.07695L6.2375 6.23945Z" stroke="white" stroke-width="2" stroke-linecap="round" stroke-linejoin="round"/>
</svg>
