<svg width="14" height="15" viewBox="0 0 14 15" fill="none" xmlns="http://www.w3.org/2000/svg">
<path d="M7 0.5C3.14 0.5 0 3.64 0 7.5C0 11.36 3.14 14.5 7 14.5C10.8606 14.5 14 11.36 14 7.5C14 3.64 10.8606 0.5 7 0.5ZM0.756571 7.5C0.756571 7.15603 0.791617 6.82154 0.84608 6.49297C0.846526 6.49844 0.849093 6.50502 0.84954 6.51094C0.935031 7.4134 1.34105 7.67645 1.85603 8.00894C1.99207 8.09689 2.14007 8.19197 2.29754 8.3094C2.752 8.64734 2.73748 8.9864 2.71751 9.4564C2.71003 9.62694 2.70256 9.80294 2.71506 9.99837C2.74151 10.3913 2.98358 10.6278 3.21806 10.8569L3.31404 10.9514C3.58859 11.2294 3.67452 11.4139 3.77955 11.7934C3.87353 12.1343 4.01359 12.4093 4.16204 12.7014L4.28157 12.9423C4.31907 13.0214 4.35612 13.0978 4.40612 13.1714C2.25612 12.1841 0.756696 10.0159 0.756696 7.49993L0.756571 7.5ZM7 13.7429C6.55403 13.7429 6.11997 13.6939 5.7 13.6054L5.69754 13.5999C5.62455 13.4638 5.5375 13.3474 5.46105 13.2459C5.26708 12.9868 5.13905 12.8168 5.28003 12.4638C5.34855 12.2928 5.55458 12.0584 5.77254 11.8104C6.27857 11.2344 6.9086 10.5179 6.43705 9.88737C6.2375 9.62086 5.8856 9.54943 5.54554 9.47989C5.26451 9.42241 4.974 9.36337 4.80157 9.19641C4.75201 9.14786 4.70402 9.09942 4.65558 9.04987C4.43907 8.82888 4.21564 8.60032 3.88104 8.48635C3.41898 8.32988 3.07958 7.62341 2.98607 7.17184C2.90158 6.76581 3.0941 6.54638 3.33807 6.26781C3.46854 6.11926 3.60302 5.96581 3.70961 5.76927C3.77312 5.65275 3.86006 5.58578 3.98606 5.49728C4.13607 5.39226 4.35058 5.3523 4.57804 5.31023C4.86655 5.25721 5.16452 5.20174 5.36409 4.99817C5.4911 4.86971 5.55159 4.72462 5.54512 4.56771C5.53061 4.21068 5.16912 3.9002 4.87915 3.6512C4.80069 3.58367 4.72959 3.52318 4.6777 3.47017C4.5422 3.33267 4.51218 3.24071 4.5277 3.20321C4.55314 3.14216 4.7162 3.0772 4.96764 3.0772C5.24163 3.0772 5.5231 3.1522 5.6537 3.26023C5.83617 3.41169 5.99621 3.48568 6.14264 3.48568C6.44064 3.48568 6.58258 3.20722 6.7201 2.93814C6.76507 2.85064 6.81106 2.76012 6.86362 2.67765C6.92065 2.58769 6.98907 2.5051 7.05559 2.42519C7.29063 2.13913 7.58305 1.78368 7.11005 1.31513C7.09309 1.29817 7.06708 1.27763 7.04654 1.25967C8.24954 1.26871 9.37009 1.62261 10.3205 2.22318C10.3025 2.2359 10.2695 2.24985 10.201 2.24985C10.0885 2.24985 9.94398 2.21191 9.80247 2.17586C9.65894 2.13881 9.52345 2.10331 9.37501 2.10331H9.36899C9.15805 2.11637 9.00002 2.18434 8.89956 2.30532C8.72255 2.51637 8.76005 2.82686 8.79554 3.12687C8.82355 3.35834 8.85157 3.59741 8.76708 3.72141C8.6951 3.82543 8.6451 3.93793 8.59454 4.04595C8.54409 4.15744 8.49699 4.26292 8.43159 4.35098C8.40112 4.39093 8.35012 4.43346 8.2951 4.47843C8.18059 4.57196 8.05313 4.67743 8.01708 4.84238C7.97657 5.03635 8.03605 5.18992 8.0836 5.31392C8.13862 5.45689 8.17612 5.55142 8.09465 5.69998C8.03918 5.80199 7.95112 5.88201 7.85715 5.96649C7.71016 6.09998 7.5432 6.25098 7.4922 6.51147C7.40325 6.96592 7.4902 7.63992 7.82726 8.04998C8.00773 8.26996 8.24323 8.38604 8.51678 8.38604C8.62582 8.38503 8.73575 8.37555 8.84278 8.36651C8.94624 8.35702 9.0488 8.34798 9.1488 8.34798C9.43128 8.34798 9.6018 8.43202 9.73629 8.63592C9.95024 8.96292 9.85426 9.27744 9.74578 9.64138C9.67078 9.89138 9.59176 10.1499 9.61832 10.4249C9.6258 10.5013 9.6268 10.5948 9.62837 10.6934C9.63439 11.0899 9.64131 11.6889 10.1183 11.6889C10.2534 11.6889 10.4093 11.6359 10.5958 11.525C10.8653 11.3665 10.9597 11.0985 11.0428 10.8625C11.0968 10.709 11.1478 10.5639 11.2398 10.4504L11.3472 10.3174C11.6127 9.99038 11.7472 9.8264 11.8932 9.31538C11.9407 9.14942 12.0287 8.9984 12.1217 8.83892C12.2057 8.69439 12.2932 8.54438 12.3521 8.37686C12.4096 8.21034 12.4197 8.05186 12.4271 7.89783C12.4382 7.70386 12.4477 7.53678 12.5521 7.37483C12.6026 7.29582 12.7561 7.05586 12.9106 7.05586C12.9447 7.05586 12.9806 7.06635 13.0197 7.0889C13.0916 7.12986 13.1676 7.2149 13.2352 7.30887C13.2372 7.37282 13.2452 7.43488 13.2452 7.49883C13.243 10.9423 10.4425 13.7428 7.00007 13.7428L7 13.7429Z" fill="url(#paint0_linear_34494_183125)"/>
<defs>
<linearGradient id="paint0_linear_34494_183125" x1="25.69" y1="7.5" x2="-0.955014" y2="6.90914" gradientUnits="userSpaceOnUse">
<stop stop-color="#20BF55"/>
<stop offset="1" stop-color="#01BAEF"/>
</linearGradient>
</defs>
</svg>
