<svg width="14" height="15" viewBox="0 0 14 15" fill="none" xmlns="http://www.w3.org/2000/svg">
<path d="M5.34349 6.84018C5.28516 6.83435 5.21516 6.83435 5.15099 6.84018C3.76266 6.79352 2.66016 5.65602 2.66016 4.25602C2.66016 2.82685 3.81516 1.66602 5.25016 1.66602C6.67932 1.66602 7.84016 2.82685 7.84016 4.25602C7.83432 5.65602 6.73182 6.79352 5.34349 6.84018Z" stroke="url(#paint0_linear_34494_183126)" stroke-linecap="round" stroke-linejoin="round"/>
<path d="M9.57193 2.83398C10.7036 2.83398 11.6136 3.74982 11.6136 4.87565C11.6136 5.97815 10.7386 6.87648 9.64776 6.91732C9.60109 6.91148 9.54859 6.91148 9.49609 6.91732" stroke="url(#paint1_linear_34494_183126)" stroke-linecap="round" stroke-linejoin="round"/>
<path d="M2.42594 8.99398C1.01427 9.93898 1.01427 11.479 2.42594 12.4182C4.0301 13.4915 6.66094 13.4915 8.2651 12.4182C9.67677 11.4732 9.67677 9.93315 8.2651 8.99398C6.66677 7.92648 4.03594 7.92648 2.42594 8.99398Z" stroke="url(#paint2_linear_34494_183126)" stroke-linecap="round" stroke-linejoin="round"/>
<path d="M10.6992 12.166C11.1192 12.0785 11.5159 11.9093 11.8426 11.6585C12.7526 10.976 12.7526 9.85018 11.8426 9.16768C11.5217 8.92268 11.1309 8.75935 10.7167 8.66602" stroke="url(#paint3_linear_34494_183126)" stroke-linecap="round" stroke-linejoin="round"/>
<defs>
<linearGradient id="paint0_linear_34494_183126" x1="12.1655" y1="4.2531" x2="2.30681" y2="4.03424" gradientUnits="userSpaceOnUse">
<stop stop-color="#20BF55"/>
<stop offset="1" stop-color="#01BAEF"/>
</linearGradient>
<linearGradient id="paint1_linear_34494_183126" x1="13.3817" y1="4.87565" x2="9.3502" y2="4.82929" gradientUnits="userSpaceOnUse">
<stop stop-color="#20BF55"/>
<stop offset="1" stop-color="#01BAEF"/>
</linearGradient>
<linearGradient id="paint2_linear_34494_183126" x1="15.9677" y1="10.7083" x2="0.835595" y2="10.1774" gradientUnits="userSpaceOnUse">
<stop stop-color="#20BF55"/>
<stop offset="1" stop-color="#01BAEF"/>
</linearGradient>
<linearGradient id="paint3_linear_34494_183126" x1="14.0496" y1="10.416" x2="10.5734" y2="10.3758" gradientUnits="userSpaceOnUse">
<stop stop-color="#20BF55"/>
<stop offset="1" stop-color="#01BAEF"/>
</linearGradient>
</defs>
</svg>
