<svg width="14" height="15" viewBox="0 0 14 15" fill="none" xmlns="http://www.w3.org/2000/svg">
<path d="M3.62963 10.866C3.23727 10.6437 2.78936 10.5272 2.33333 10.5288C1.7493 10.4976 1.17603 10.6888 0.738904 11.0604C0.301748 11.4322 0.0361185 11.9543 0 12.5128C0.0361126 13.0712 0.301748 13.5933 0.738904 13.9651C1.17606 14.3367 1.74933 14.5279 2.33333 14.4967C2.91736 14.5279 3.49064 14.3367 3.92776 13.9651C4.36492 13.5933 4.63055 13.0712 4.66667 12.5128V8.26928H3.62963V10.866ZM2.33333 13.5047C2.02489 13.5328 1.71713 13.4451 1.47511 13.2599C1.23321 13.0747 1.07603 12.8068 1.03704 12.5128C1.07604 12.2187 1.23322 11.9508 1.47511 11.7656C1.71713 11.5805 2.02489 11.4927 2.33333 11.5208C2.64178 11.4927 2.94954 11.5805 3.19156 11.7656C3.43345 11.9508 3.59064 12.2187 3.62963 12.5128C3.59063 12.8068 3.43345 13.0747 3.19156 13.2599C2.94954 13.4451 2.64178 13.5328 2.33333 13.5047ZM7.68444 1.71015L7.89185 2.70213L12.963 1.71015V9.37811C12.5706 9.1558 12.1227 9.03934 11.6667 9.0409C11.0826 9.00968 10.5094 9.20087 10.0722 9.57254C9.63508 9.9443 9.36945 10.4664 9.33333 11.0248C9.36945 11.5833 9.63508 12.1054 10.0722 12.4772C10.5094 12.8488 11.0827 13.04 11.6667 13.0088C12.2507 13.04 12.824 12.8488 13.2611 12.4772C13.6983 12.1054 13.9639 11.5833 14 11.0248V0.5L7.68444 1.71015ZM11.6667 12.0168C11.3582 12.0449 11.0505 11.9571 10.8084 11.772C10.5665 11.5868 10.4094 11.3188 10.3704 11.0248C10.4094 10.7307 10.5666 10.4628 10.8084 10.2776C11.0505 10.0925 11.3582 10.0047 11.6667 10.0328C11.9751 10.0047 12.2829 10.0925 12.5249 10.2776C12.7668 10.4628 12.924 10.7307 12.963 11.0248C12.924 11.3188 12.7668 11.5868 12.5249 11.772C12.2829 11.9571 11.9751 12.0449 11.6667 12.0168Z" fill="url(#paint0_linear_34138_179414)"/>
<path d="M1.90234 3.86133H6.84062" stroke="url(#paint1_linear_34138_179414)" stroke-linecap="round" stroke-linejoin="round"/>
<path d="M4.37109 6.22369V1.5" stroke="url(#paint2_linear_34138_179414)" stroke-linecap="round" stroke-linejoin="round"/>
<defs>
<linearGradient id="paint0_linear_34138_179414" x1="25.69" y1="7.5" x2="-0.955014" y2="6.90914" gradientUnits="userSpaceOnUse">
<stop stop-color="#20BF55"/>
<stop offset="1" stop-color="#01BAEF"/>
</linearGradient>
<linearGradient id="paint1_linear_34138_179414" x1="10.9641" y1="4.36133" x2="1.67228" y2="3.34382" gradientUnits="userSpaceOnUse">
<stop stop-color="#20BF55"/>
<stop offset="1" stop-color="#01BAEF"/>
</linearGradient>
<linearGradient id="paint2_linear_34138_179414" x1="6.20609" y1="3.86184" x2="4.30198" y2="3.8529" gradientUnits="userSpaceOnUse">
<stop stop-color="#20BF55"/>
<stop offset="1" stop-color="#01BAEF"/>
</linearGradient>
</defs>
</svg>
