<svg width="11" height="11" viewBox="0 0 11 11" fill="none" xmlns="http://www.w3.org/2000/svg">
<mask id="path-1-inside-1_34259_179866" fill="white">
<path fill-rule="evenodd" clip-rule="evenodd" d="M1.16328 0.199587C0.897164 -0.0665291 0.465704 -0.0665292 0.199588 0.199587C-0.0665289 0.465704 -0.0665294 0.897164 0.199587 1.16328L4.53717 5.50086L0.200597 9.83743C-0.0655199 10.1035 -0.06552 10.535 0.200597 10.8011C0.466713 11.0672 0.898173 11.0672 1.16429 10.8011L5.50086 6.46455L9.83652 10.8002C10.1026 11.0663 10.5341 11.0663 10.8002 10.8002C11.0663 10.5341 11.0663 10.1026 10.8002 9.83652L6.46455 5.50086L10.8012 1.16419C11.0673 0.898072 11.0673 0.466612 10.8012 0.200495C10.5351 -0.0656212 10.1036 -0.0656216 9.83753 0.200495L5.50086 4.53717L1.16328 0.199587Z"/>
</mask>
<path fill-rule="evenodd" clip-rule="evenodd" d="M1.16328 0.199587C0.897164 -0.0665291 0.465704 -0.0665292 0.199588 0.199587C-0.0665289 0.465704 -0.0665294 0.897164 0.199587 1.16328L4.53717 5.50086L0.200597 9.83743C-0.0655199 10.1035 -0.06552 10.535 0.200597 10.8011C0.466713 11.0672 0.898173 11.0672 1.16429 10.8011L5.50086 6.46455L9.83652 10.8002C10.1026 11.0663 10.5341 11.0663 10.8002 10.8002C11.0663 10.5341 11.0663 10.1026 10.8002 9.83652L6.46455 5.50086L10.8012 1.16419C11.0673 0.898072 11.0673 0.466612 10.8012 0.200495C10.5351 -0.0656212 10.1036 -0.0656216 9.83753 0.200495L5.50086 4.53717L1.16328 0.199587Z" fill="white" fill-opacity="0.9"/>
<path d="M0.199588 0.199587L0.906694 0.906694L0.199588 0.199587ZM1.16328 0.199587L1.87039 -0.507519L1.87039 -0.507519L1.16328 0.199587ZM0.199587 1.16328L-0.50752 1.87039L0.199587 1.16328ZM4.53717 5.50086L5.24427 6.20797L5.95138 5.50086L5.24427 4.79375L4.53717 5.50086ZM0.200597 9.83743L-0.50651 9.13032L-0.506511 9.13032L0.200597 9.83743ZM0.200597 10.8011L-0.506511 11.5082L-0.50651 11.5082L0.200597 10.8011ZM1.16429 10.8011L0.457183 10.094H0.457182L1.16429 10.8011ZM5.50086 6.46455L6.20797 5.75745L5.50086 5.05034L4.79375 5.75745L5.50086 6.46455ZM9.83652 10.8002L9.12941 11.5073L9.12941 11.5073L9.83652 10.8002ZM10.8002 10.8002L11.5073 11.5073L11.5073 11.5073L10.8002 10.8002ZM10.8002 9.83652L10.0931 10.5436L10.0931 10.5436L10.8002 9.83652ZM6.46455 5.50086L5.75745 4.79375L5.05034 5.50086L5.75745 6.20797L6.46455 5.50086ZM10.8012 1.16419L11.5083 1.8713L11.5083 1.87129L10.8012 1.16419ZM10.8012 0.200495L11.5083 -0.506611L10.8012 0.200495ZM9.83753 0.200495L10.5446 0.907602L10.5446 0.907601L9.83753 0.200495ZM5.50086 4.53717L4.79375 5.24427L5.50086 5.95138L6.20797 5.24427L5.50086 4.53717ZM0.906694 0.906694C0.782287 1.0311 0.580582 1.0311 0.456174 0.906694L1.87039 -0.507519C1.21375 -1.16416 0.149122 -1.16416 -0.507519 -0.507519L0.906694 0.906694ZM0.906694 0.456174C1.0311 0.580582 1.0311 0.782287 0.906694 0.906694L-0.507519 -0.507519C-1.16416 0.149121 -1.16416 1.21375 -0.50752 1.87039L0.906694 0.456174ZM5.24427 4.79375L0.906694 0.456174L-0.50752 1.87039L3.83006 6.20797L5.24427 4.79375ZM0.907703 10.5445L5.24427 6.20797L3.83006 4.79375L-0.50651 9.13032L0.907703 10.5445ZM0.907704 10.094C1.03211 10.2184 1.03211 10.4201 0.907704 10.5445L-0.506511 9.13032C-1.16315 9.78696 -1.16315 10.8516 -0.506511 11.5082L0.907704 10.094ZM0.457182 10.094C0.581591 9.96961 0.783297 9.96961 0.907703 10.094L-0.50651 11.5082C0.15013 12.1649 1.21475 12.1649 1.8714 11.5082L0.457182 10.094ZM4.79375 5.75745L0.457183 10.094L1.8714 11.5082L6.20797 7.17166L4.79375 5.75745ZM10.5436 10.0931L6.20797 5.75745L4.79375 7.17166L9.12941 11.5073L10.5436 10.0931ZM10.0931 10.0931C10.2175 9.9687 10.4192 9.9687 10.5436 10.0931L9.12941 11.5073C9.78605 12.164 10.8507 12.164 11.5073 11.5073L10.0931 10.0931ZM10.0931 10.5436C9.9687 10.4192 9.9687 10.2175 10.0931 10.0931L11.5073 11.5073C12.164 10.8507 12.164 9.78606 11.5073 9.12941L10.0931 10.5436ZM5.75745 6.20797L10.0931 10.5436L11.5073 9.12941L7.17166 4.79375L5.75745 6.20797ZM10.0941 0.457082L5.75745 4.79375L7.17166 6.20797L11.5083 1.8713L10.0941 0.457082ZM10.0941 0.907602C9.96971 0.783194 9.96971 0.58149 10.0941 0.457082L11.5083 1.87129C12.165 1.21465 12.165 0.15003 11.5083 -0.506611L10.0941 0.907602ZM10.5446 0.907601C10.4202 1.03201 10.2185 1.03201 10.0941 0.907602L11.5083 -0.506611C10.8517 -1.16325 9.78706 -1.16325 9.13042 -0.506611L10.5446 0.907601ZM6.20797 5.24427L10.5446 0.907602L9.13042 -0.506612L4.79375 3.83006L6.20797 5.24427ZM0.456174 0.906694L4.79375 5.24427L6.20797 3.83006L1.87039 -0.507519L0.456174 0.906694Z" fill="#C0C0C0" mask="url(#path-1-inside-1_34259_179866)"/>
</svg>
