<svg width="14" height="15" viewBox="0 0 14 15" fill="none" xmlns="http://www.w3.org/2000/svg">
<path d="M3.15104 1.72266H10.851C11.4927 1.72266 12.0177 2.24766 12.0177 2.88932V4.17266C12.0177 4.63932 11.726 5.22266 11.4344 5.51432L8.92604 7.73099C8.57604 8.02266 8.34271 8.60599 8.34271 9.07266V11.581C8.34271 11.931 8.10937 12.3977 7.81771 12.5727L7.00104 13.0977C6.24271 13.5643 5.19271 13.0393 5.19271 12.106V9.01432C5.19271 8.60599 4.95938 8.08099 4.72604 7.78932L2.50938 5.45599C2.21771 5.16432 1.98438 4.63932 1.98438 4.28932V2.94766C1.98438 2.24766 2.50937 1.72266 3.15104 1.72266Z" stroke="white" stroke-opacity="0.9" stroke-width="1.05" stroke-miterlimit="10" stroke-linecap="round" stroke-linejoin="round"/>
<path d="M6.37583 1.72266L3.5 6.33099" stroke="white" stroke-opacity="0.9" stroke-width="1.05" stroke-miterlimit="10" stroke-linecap="round" stroke-linejoin="round"/>
</svg>
