<svg width="9" height="10" viewBox="0 0 9 10" fill="none" xmlns="http://www.w3.org/2000/svg">
<path fill-rule="evenodd" clip-rule="evenodd" d="M8.78151 4.74915C8.75429 4.85087 8.75429 4.95802 8.78151 5.05975L8.97946 5.79383C9.00678 5.89545 9.00688 6.0025 8.97956 6.10422C8.95234 6.20595 8.89881 6.29864 8.82429 6.37305V6.37295L8.28657 6.9106C8.21195 6.98531 8.15842 7.0785 8.1314 7.18053L7.93475 7.91501C7.87922 8.12197 7.71741 8.28355 7.51042 8.33898L6.77614 8.5358C6.674 8.56291 6.58089 8.61644 6.50617 8.69105V8.69095L5.96845 9.2286C5.81691 9.38004 5.59615 9.43919 5.38916 9.38386H5.38926L4.6547 9.18703C4.55296 9.15982 4.4459 9.15982 4.34416 9.18703L3.6097 9.38587C3.4027 9.4412 3.18196 9.38205 3.0304 9.23072L2.49268 8.69306C2.41826 8.61865 2.32556 8.56513 2.22382 8.53781L1.48954 8.34099C1.28255 8.28556 1.12075 8.12398 1.06521 7.91702H1.06531L0.868662 7.18254C0.841545 7.08051 0.788013 6.98743 0.713391 6.91261V6.91271L0.175672 6.37506C0.101249 6.30065 0.0476184 6.20796 0.0204007 6.10624C-0.0068168 6.00451 -0.00681679 5.89746 0.0205011 5.79584V5.79574L0.217349 5.06155C0.244567 4.95982 0.244567 4.85267 0.217349 4.75095L0.0205011 4.01676C-0.00681695 3.91504 -0.00681695 3.80799 0.0204007 3.70626C0.0476184 3.60464 0.101251 3.51185 0.175672 3.43754L0.713391 2.89989C0.788015 2.82517 0.841545 2.73208 0.868662 2.62995H0.868562L1.06521 1.89548C1.12085 1.68862 1.28255 1.52705 1.48954 1.47151L2.22272 1.27469C2.32446 1.24747 2.41716 1.19395 2.49158 1.11944V1.11954L3.0293 0.581884C3.18084 0.430448 3.4016 0.371301 3.60859 0.426632H3.60849L4.34306 0.623456C4.44479 0.65067 4.55185 0.65067 4.65349 0.623456L5.38805 0.426632C5.59505 0.371301 5.81579 0.43045 5.96735 0.581884V0.581784L6.50507 1.11944C6.57979 1.19405 6.67289 1.24767 6.77503 1.27469L7.50931 1.47151C7.7158 1.52676 7.8774 1.68752 7.93365 1.89368H7.93355L8.13019 2.62816C8.15731 2.73028 8.21084 2.82337 8.28547 2.89809L8.82318 3.43574C8.89761 3.51015 8.95124 3.60284 8.97846 3.70446C9.00567 3.80619 9.00567 3.91324 8.97836 4.01496L8.78151 4.74915Z" fill="#0552FB"/>
<path d="M2.29325 5.02881C2.27198 4.98568 2.27205 4.93515 2.29341 4.89209C2.31477 4.849 2.35499 4.81826 2.40227 4.80881C2.44959 4.7994 2.49862 4.81239 2.53496 4.84397C2.53496 4.84397 3.01375 5.31249 3.27306 5.52921C3.42616 5.65764 3.49529 5.72926 3.67065 5.59344C4.67275 4.81812 6.45426 3.41491 6.4835 3.39139C6.61344 3.2911 6.78136 3.42971 6.61344 3.58819C6.33506 3.84925 4.08682 6.11837 3.67491 6.39882C3.53572 6.49122 3.22395 6.50971 3.05231 6.1775C2.9994 6.07768 2.29331 5.02891 2.29331 5.02891L2.29325 5.02881Z" fill="white"/>
</svg>
