<svg width="14" height="14" viewBox="0 0 14 14" fill="none" xmlns="http://www.w3.org/2000/svg">
<path d="M7 0C3.14 0 0 3.14 0 7C0 10.86 3.14 14 7 14C10.8606 14 14 10.86 14 7C14 3.14 10.8606 0 7 0ZM0.756571 7C0.756571 6.65603 0.791617 6.32154 0.84608 5.99297C0.846526 5.99844 0.849093 6.00502 0.84954 6.01094C0.935031 6.9134 1.34105 7.17645 1.85603 7.50894C1.99207 7.59689 2.14007 7.69197 2.29754 7.8094C2.752 8.14734 2.73748 8.4864 2.71751 8.9564C2.71003 9.12694 2.70256 9.30294 2.71506 9.49837C2.74151 9.89134 2.98358 10.1278 3.21806 10.3569L3.31404 10.4514C3.58859 10.7294 3.67452 10.9139 3.77955 11.2934C3.87353 11.6343 4.01359 11.9093 4.16204 12.2014L4.28157 12.4423C4.31907 12.5214 4.35612 12.5978 4.40612 12.6714C2.25612 11.6841 0.756696 9.51593 0.756696 6.99993L0.756571 7ZM7 13.2429C6.55403 13.2429 6.11997 13.1939 5.7 13.1054L5.69754 13.0999C5.62455 12.9638 5.5375 12.8474 5.46105 12.7459C5.26708 12.4868 5.13905 12.3168 5.28003 11.9638C5.34855 11.7928 5.55458 11.5584 5.77254 11.3104C6.27857 10.7344 6.9086 10.0179 6.43705 9.38737C6.2375 9.12086 5.8856 9.04943 5.54554 8.97989C5.26451 8.92241 4.974 8.86337 4.80157 8.69641C4.75201 8.64786 4.70402 8.59942 4.65558 8.54987C4.43907 8.32888 4.21564 8.10032 3.88104 7.98635C3.41898 7.82988 3.07958 7.12341 2.98607 6.67184C2.90158 6.26581 3.0941 6.04638 3.33807 5.76781C3.46854 5.61926 3.60302 5.46581 3.70961 5.26927C3.77312 5.15275 3.86006 5.08578 3.98606 4.99728C4.13607 4.89226 4.35058 4.8523 4.57804 4.81023C4.86655 4.75721 5.16452 4.70174 5.36409 4.49817C5.4911 4.36971 5.55159 4.22462 5.54512 4.06771C5.53061 3.71068 5.16912 3.4002 4.87915 3.1512C4.80069 3.08367 4.72959 3.02318 4.6777 2.97017C4.5422 2.83267 4.51218 2.74071 4.5277 2.70321C4.55314 2.64216 4.7162 2.5772 4.96764 2.5772C5.24163 2.5772 5.5231 2.6522 5.6537 2.76023C5.83617 2.91169 5.99621 2.98568 6.14264 2.98568C6.44064 2.98568 6.58258 2.70722 6.7201 2.43814C6.76507 2.35064 6.81106 2.26012 6.86362 2.17765C6.92065 2.08769 6.98907 2.0051 7.05559 1.92519C7.29063 1.63913 7.58305 1.28368 7.11005 0.815134C7.09309 0.79817 7.06708 0.777634 7.04654 0.759665C8.24954 0.768706 9.37009 1.12261 10.3205 1.72318C10.3025 1.7359 10.2695 1.74985 10.201 1.74985C10.0885 1.74985 9.94398 1.71191 9.80247 1.67586C9.65894 1.63881 9.52345 1.60331 9.37501 1.60331H9.36899C9.15805 1.61637 9.00002 1.68434 8.89956 1.80532C8.72255 2.01637 8.76005 2.32686 8.79554 2.62687C8.82355 2.85834 8.85157 3.09741 8.76708 3.22141C8.6951 3.32543 8.6451 3.43793 8.59454 3.54595C8.54409 3.65744 8.49699 3.76292 8.43159 3.85098C8.40112 3.89093 8.35012 3.93346 8.2951 3.97843C8.18059 4.07196 8.05313 4.17743 8.01708 4.34238C7.97657 4.53635 8.03605 4.68992 8.0836 4.81392C8.13862 4.95689 8.17612 5.05142 8.09465 5.19998C8.03918 5.30199 7.95112 5.38201 7.85715 5.46649C7.71016 5.59998 7.5432 5.75098 7.4922 6.01147C7.40325 6.46592 7.4902 7.13992 7.82726 7.54998C8.00773 7.76996 8.24323 7.88604 8.51678 7.88604C8.62582 7.88503 8.73575 7.87555 8.84278 7.86651C8.94624 7.85702 9.0488 7.84798 9.1488 7.84798C9.43128 7.84798 9.6018 7.93202 9.73629 8.13592C9.95024 8.46292 9.85426 8.77744 9.74578 9.14138C9.67078 9.39138 9.59176 9.64986 9.61832 9.92486C9.6258 10.0013 9.6268 10.0948 9.62837 10.1934C9.63439 10.5899 9.64131 11.1889 10.1183 11.1889C10.2534 11.1889 10.4093 11.1359 10.5958 11.025C10.8653 10.8665 10.9597 10.5985 11.0428 10.3625C11.0968 10.209 11.1478 10.0639 11.2398 9.95041L11.3472 9.81738C11.6127 9.49038 11.7472 9.3264 11.8932 8.81538C11.9407 8.64942 12.0287 8.4984 12.1217 8.33892C12.2057 8.19439 12.2932 8.04438 12.3521 7.87686C12.4096 7.71034 12.4197 7.55186 12.4271 7.39783C12.4382 7.20386 12.4477 7.03678 12.5521 6.87483C12.6026 6.79582 12.7561 6.55586 12.9106 6.55586C12.9447 6.55586 12.9806 6.56635 13.0197 6.5889C13.0916 6.62986 13.1676 6.7149 13.2352 6.80887C13.2372 6.87282 13.2452 6.93488 13.2452 6.99883C13.243 10.4423 10.4425 13.2428 7.00007 13.2428L7 13.2429Z" fill="url(#paint0_linear_34138_179411)"/>
<defs>
<linearGradient id="paint0_linear_34138_179411" x1="25.69" y1="7" x2="-0.955014" y2="6.40914" gradientUnits="userSpaceOnUse">
<stop stop-color="#20BF55"/>
<stop offset="1" stop-color="#01BAEF"/>
</linearGradient>
</defs>
</svg>
