<svg width="5" height="9" viewBox="0 0 5 9" fill="none" xmlns="http://www.w3.org/2000/svg">
<path d="M3.67266 7.91289L0.513281 4.76289C0.475781 4.72539 0.449281 4.68477 0.433781 4.64102C0.418031 4.59727 0.410156 4.55039 0.410156 4.50039C0.410156 4.45039 0.418031 4.40352 0.433781 4.35977C0.449281 4.31602 0.475781 4.27539 0.513281 4.23789L3.67266 1.07852C3.76016 0.991016 3.86953 0.947266 4.00078 0.947266C4.13203 0.947266 4.24453 0.994141 4.33828 1.08789C4.43203 1.18164 4.47891 1.29102 4.47891 1.41602C4.47891 1.54102 4.43203 1.65039 4.33828 1.74414L1.58203 4.50039L4.33828 7.25664C4.42578 7.34414 4.46953 7.45189 4.46953 7.57989C4.46953 7.70814 4.42266 7.81914 4.32891 7.91289C4.23516 8.00664 4.12578 8.05352 4.00078 8.05352C3.87578 8.05352 3.76641 8.00664 3.67266 7.91289Z" fill="white"/>
</svg>
