<svg width="13" height="3" viewBox="0 0 13 3" fill="none" xmlns="http://www.w3.org/2000/svg">
<path d="M6.31 0C5.59 0 5 0.59 5 1.31C5 2.03 5.59 2.62 6.31 2.62C7.03 2.62 7.62 2.03 7.62 1.31C7.62 0.59 7.03 0 6.31 0Z" fill="#D8D8D8"/>
<path d="M1.31 0C0.59 0 0 0.59 0 1.31C0 2.03 0.59 2.62 1.31 2.62C2.03 2.62 2.62 2.03 2.62 1.31C2.62 0.59 2.03 0 1.31 0Z" fill="#D8D8D8"/>
<path d="M11.31 0C10.59 0 10 0.59 10 1.31C10 2.03 10.59 2.62 11.31 2.62C12.03 2.62 12.62 2.03 12.62 1.31C12.62 0.59 12.03 0 11.31 0Z" fill="#D8D8D8"/>
</svg>
