<svg width="61" height="60" viewBox="0 0 61 60" fill="none" xmlns="http://www.w3.org/2000/svg">
<path d="M53 14.9492C44.675 14.1242 36.3 13.6992 27.95 13.6992C23 13.6992 18.05 13.9492 13.1 14.4492L8 14.9492" stroke="#C0C0C0" stroke-width="3" stroke-linecap="round" stroke-linejoin="round"/>
<path d="M21.75 12.425L22.3 9.15C22.7 6.775 23 5 27.225 5H33.775C38 5 38.325 6.875 38.7 9.175L39.25 12.425" stroke="#C0C0C0" stroke-width="3" stroke-linecap="round" stroke-linejoin="round"/>
<path d="M47.625 22.8496L46 48.0246C45.725 51.9496 45.5 54.9996 38.525 54.9996H22.475C15.5 54.9996 15.275 51.9496 15 48.0246L13.375 22.8496" stroke="#C0C0C0" stroke-width="3" stroke-linecap="round" stroke-linejoin="round"/>
<path d="M26.3242 41.25H34.6492" stroke="#C0C0C0" stroke-width="3" stroke-linecap="round" stroke-linejoin="round"/>
<path d="M24.25 31.25H36.75" stroke="#C0C0C0" stroke-width="3" stroke-linecap="round" stroke-linejoin="round"/>
</svg>
