<svg width="24" height="24" viewBox="0 0 24 24" fill="none" xmlns="http://www.w3.org/2000/svg">
<path d="M9 22H15C20 22 22 20 22 15V9C22 4 20 2 15 2H9C4 2 2 4 2 9V15C2 20 4 22 9 22Z" stroke="url(#paint0_linear_33981_178947)" stroke-width="1.5" stroke-linecap="round" stroke-linejoin="round"/>
<path d="M9 10C10.1046 10 11 9.10457 11 8C11 6.89543 10.1046 6 9 6C7.89543 6 7 6.89543 7 8C7 9.10457 7.89543 10 9 10Z" stroke="url(#paint1_linear_33981_178947)" stroke-width="1.5" stroke-linecap="round" stroke-linejoin="round"/>
<path d="M2.67188 18.9486L7.60187 15.6386C8.39187 15.1086 9.53187 15.1686 10.2419 15.7786L10.5719 16.0686C11.3519 16.7386 12.6119 16.7386 13.3919 16.0686L17.5519 12.4986C18.3319 11.8286 19.5919 11.8286 20.3719 12.4986L22.0019 13.8986" stroke="url(#paint2_linear_33981_178947)" stroke-width="1.5" stroke-linecap="round" stroke-linejoin="round"/>
<defs>
<linearGradient id="paint0_linear_33981_178947" x1="38.7" y1="12" x2="0.635694" y2="11.1559" gradientUnits="userSpaceOnUse">
<stop stop-color="#20BF55"/>
<stop offset="1" stop-color="#01BAEF"/>
</linearGradient>
<linearGradient id="paint1_linear_33981_178947" x1="14.34" y1="8" x2="6.72714" y2="7.83118" gradientUnits="userSpaceOnUse">
<stop stop-color="#20BF55"/>
<stop offset="1" stop-color="#01BAEF"/>
</linearGradient>
<linearGradient id="paint2_linear_33981_178947" x1="38.1424" y1="15.4723" x2="1.47456" y2="13.2117" gradientUnits="userSpaceOnUse">
<stop stop-color="#20BF55"/>
<stop offset="1" stop-color="#01BAEF"/>
</linearGradient>
</defs>
</svg>
