<svg width="24" height="24" viewBox="0 0 24 24" fill="none" xmlns="http://www.w3.org/2000/svg">
<path d="M6.28016 22.0017C8.00328 22.0017 9.40016 20.6048 9.40016 18.8817C9.40016 17.1586 8.00328 15.7617 6.28016 15.7617C4.55703 15.7617 3.16016 17.1586 3.16016 18.8817C3.16016 20.6048 4.55703 22.0017 6.28016 22.0017Z" stroke="url(#paint0_linear_33981_178918)" stroke-width="1.5" stroke-linecap="round" stroke-linejoin="round"/>
<path d="M20.8384 16.8003V4.60034C20.8384 2.00034 19.2084 1.64034 17.5584 2.09034L11.3184 3.79034C10.1784 4.10034 9.39844 5.00034 9.39844 6.30034V8.47034V9.93034V18.8703" stroke="url(#paint1_linear_33981_178918)" stroke-width="1.5" stroke-linecap="round" stroke-linejoin="round"/>
<path d="M17.7216 19.9197C19.4447 19.9197 20.8416 18.5228 20.8416 16.7997C20.8416 15.0766 19.4447 13.6797 17.7216 13.6797C15.9984 13.6797 14.6016 15.0766 14.6016 16.7997C14.6016 18.5228 15.9984 19.9197 17.7216 19.9197Z" stroke="url(#paint2_linear_33981_178918)" stroke-width="1.5" stroke-linecap="round" stroke-linejoin="round"/>
<path d="M9.39844 9.51844L20.8384 6.39844" stroke="url(#paint3_linear_33981_178918)" stroke-width="1.5" stroke-linecap="round" stroke-linejoin="round"/>
<defs>
<linearGradient id="paint0_linear_33981_178918" x1="14.6106" y1="18.8817" x2="2.73449" y2="18.6184" gradientUnits="userSpaceOnUse">
<stop stop-color="#20BF55"/>
<stop offset="1" stop-color="#01BAEF"/>
</linearGradient>
<linearGradient id="paint1_linear_33981_178918" x1="30.3908" y1="10.3981" x2="8.61223" y2="10.072" gradientUnits="userSpaceOnUse">
<stop stop-color="#20BF55"/>
<stop offset="1" stop-color="#01BAEF"/>
</linearGradient>
<linearGradient id="paint2_linear_33981_178918" x1="26.052" y1="16.7997" x2="14.1759" y2="16.5363" gradientUnits="userSpaceOnUse">
<stop stop-color="#20BF55"/>
<stop offset="1" stop-color="#01BAEF"/>
</linearGradient>
<linearGradient id="paint3_linear_33981_178918" x1="30.3908" y1="7.95844" x2="8.75041" y2="6.19889" gradientUnits="userSpaceOnUse">
<stop stop-color="#20BF55"/>
<stop offset="1" stop-color="#01BAEF"/>
</linearGradient>
</defs>
</svg>
