<svg width="24" height="24" viewBox="0 0 24 24" fill="none" xmlns="http://www.w3.org/2000/svg">
<path d="M6.70312 9.26172L12.0031 12.3317L17.2631 9.28172" stroke="url(#paint0_linear_33981_178978)" stroke-width="1.5" stroke-linecap="round" stroke-linejoin="round"/>
<path d="M12.0039 17.7703V12.3203" stroke="url(#paint1_linear_33981_178978)" stroke-width="1.5" stroke-linecap="round" stroke-linejoin="round"/>
<path d="M10.7622 6.28986L7.56219 8.06986C6.84219 8.46986 6.24219 9.47985 6.24219 10.3099V13.6999C6.24219 14.5299 6.83219 15.5399 7.56219 15.9399L10.7622 17.7199C11.4422 18.0999 12.5622 18.0999 13.2522 17.7199L16.4522 15.9399C17.1722 15.5399 17.7722 14.5299 17.7722 13.6999V10.2999C17.7722 9.46986 17.1822 8.45985 16.4522 8.05985L13.2522 6.27985C12.5622 5.89985 11.4422 5.89986 10.7622 6.28986Z" stroke="url(#paint2_linear_33981_178978)" stroke-width="1.5" stroke-linecap="round" stroke-linejoin="round"/>
<path d="M22 15C22 18.87 18.87 22 15 22L16.05 20.25" stroke="url(#paint3_linear_33981_178978)" stroke-width="1.5" stroke-linecap="round" stroke-linejoin="round"/>
<path d="M2 9C2 5.13 5.13 2 9 2L7.95001 3.75" stroke="url(#paint4_linear_33981_178978)" stroke-width="1.5" stroke-linecap="round" stroke-linejoin="round"/>
<defs>
<linearGradient id="paint0_linear_33981_178978" x1="26.0807" y1="10.7967" x2="6.0892" y2="9.27184" gradientUnits="userSpaceOnUse">
<stop stop-color="#20BF55"/>
<stop offset="1" stop-color="#01BAEF"/>
</linearGradient>
<linearGradient id="paint1_linear_33981_178978" x1="13.8389" y1="15.0453" x2="11.9348" y2="15.0376" gradientUnits="userSpaceOnUse">
<stop stop-color="#20BF55"/>
<stop offset="1" stop-color="#01BAEF"/>
</linearGradient>
<linearGradient id="paint2_linear_33981_178978" x1="27.3997" y1="12.0005" x2="5.45482" y2="11.5332" gradientUnits="userSpaceOnUse">
<stop stop-color="#20BF55"/>
<stop offset="1" stop-color="#01BAEF"/>
</linearGradient>
<linearGradient id="paint3_linear_33981_178978" x1="27.845" y1="18.5" x2="14.5225" y2="18.2046" gradientUnits="userSpaceOnUse">
<stop stop-color="#20BF55"/>
<stop offset="1" stop-color="#01BAEF"/>
</linearGradient>
<linearGradient id="paint4_linear_33981_178978" x1="14.845" y1="5.5" x2="1.52249" y2="5.20457" gradientUnits="userSpaceOnUse">
<stop stop-color="#20BF55"/>
<stop offset="1" stop-color="#01BAEF"/>
</linearGradient>
</defs>
</svg>
