<svg width="24" height="24" viewBox="0 0 24 24" fill="none" xmlns="http://www.w3.org/2000/svg">
<path d="M16 22H9C6 22 4 20 4 17V7C4 4 6 2 9 2H16C19 2 21 4 21 7V17C21 20 19 22 16 22Z" stroke="url(#paint0_linear_33981_178961)" stroke-width="1.5" stroke-linecap="round" stroke-linejoin="round"/>
<path d="M4 15H21" stroke="url(#paint1_linear_33981_178961)" stroke-width="1.5" stroke-linecap="round" stroke-linejoin="round"/>
<path d="M7 12H8" stroke="url(#paint2_linear_33981_178961)" stroke-width="1.5" stroke-linecap="round" stroke-linejoin="round"/>
<path d="M7 9.5H8" stroke="url(#paint3_linear_33981_178961)" stroke-width="1.5" stroke-linecap="round" stroke-linejoin="round"/>
<path d="M7 7H8" stroke="url(#paint4_linear_33981_178961)" stroke-width="1.5" stroke-linecap="round" stroke-linejoin="round"/>
<path d="M16.4945 18.25H16.5035" stroke="url(#paint5_linear_33981_178961)" stroke-width="2" stroke-linecap="round" stroke-linejoin="round"/>
<defs>
<linearGradient id="paint0_linear_33981_178961" x1="35.195" y1="12" x2="2.83593" y2="11.3901" gradientUnits="userSpaceOnUse">
<stop stop-color="#20BF55"/>
<stop offset="1" stop-color="#01BAEF"/>
</linearGradient>
<linearGradient id="paint1_linear_33981_178961" x1="35.195" y1="15.5" x2="6.85224" y2="4.81546" gradientUnits="userSpaceOnUse">
<stop stop-color="#20BF55"/>
<stop offset="1" stop-color="#01BAEF"/>
</linearGradient>
<linearGradient id="paint2_linear_33981_178961" x1="8.835" y1="12.5" x2="6.93178" y2="12.4578" gradientUnits="userSpaceOnUse">
<stop stop-color="#20BF55"/>
<stop offset="1" stop-color="#01BAEF"/>
</linearGradient>
<linearGradient id="paint3_linear_33981_178961" x1="8.835" y1="10" x2="6.93178" y2="9.9578" gradientUnits="userSpaceOnUse">
<stop stop-color="#20BF55"/>
<stop offset="1" stop-color="#01BAEF"/>
</linearGradient>
<linearGradient id="paint4_linear_33981_178961" x1="8.835" y1="7.5" x2="6.93178" y2="7.4578" gradientUnits="userSpaceOnUse">
<stop stop-color="#20BF55"/>
<stop offset="1" stop-color="#01BAEF"/>
</linearGradient>
<linearGradient id="paint5_linear_33981_178961" x1="17.8313" y1="18.25" x2="15.9319" y2="18.208" gradientUnits="userSpaceOnUse">
<stop stop-color="#20BF55"/>
<stop offset="1" stop-color="#01BAEF"/>
</linearGradient>
</defs>
</svg>
